<svg width="375" height="100" xmlns="http://www.w3.org/2000/svg" zoomAndPan="magnify" preserveAspectRatio="xMidYMid meet" version="1.0">
 <defs>
  <g id="svg_1"/>
 </defs>
 <g>
  <title>Layer 1</title>
  <g id="svg_18">
   <g fill="#ffffff" id="svg_2">
    <g id="svg_3">
     <g id="svg_4">
      <path d="m96.83266,87.74998l-39.48438,0c-1.67969,0 -2.51562,-0.83594 -2.51562,-2.51563l0,-72.125c0,-1.67578 0.83593,-2.51562 2.51562,-2.51562l10.20313,0c1.6875,0 2.53125,0.83984 2.53125,2.51562l0,60c0,0.88672 0.47656,1.32813 1.4375,1.32813l25.3125,0c1.60156,0 2.40625,0.875 2.40625,2.625l0,8.17187c0,1.67969 -0.80469,2.51563 -2.40625,2.51563zm0,0" id="svg_5"/>
     </g>
    </g>
   </g>
   <g fill="#ffffff" id="svg_6">
    <g id="svg_7">
     <g id="svg_8">
      <path d="m139.43269,74.54685l8.51562,0c2.5625,0 4.38281,-0.53515 5.46875,-1.60937c1.08203,-1.08203 1.625,-2.90625 1.625,-5.46875l0,-36.59375c0,-2.5625 -0.54297,-4.37891 -1.625,-5.45313c-1.08594,-1.08203 -2.90625,-1.625 -5.46875,-1.625l-8.51562,0c-2.5625,0 -4.36719,0.54297 -5.40625,1.625c-1.03125,1.07422 -1.54688,2.89063 -1.54688,5.45313l0,36.59375c0,2.5625 0.51563,4.38672 1.54688,5.46875c1.03906,1.07422 2.84375,1.60937 5.40625,1.60937zm11.04687,13.20313l-13.4375,0c-6.32422,0 -11.21094,-1.67578 -14.65625,-5.03125c-3.4375,-3.36328 -5.15625,-8.20703 -5.15625,-14.53125l0,-38.03125c0,-6.32031 1.71875,-11.16016 5.15625,-14.51563c3.44531,-3.36328 8.33203,-5.04687 14.65625,-5.04687l13.4375,0c6.3125,0 11.1875,1.68359 14.625,5.04687c3.44531,3.35547 5.17188,8.19532 5.17188,14.51563l0,38.03125c0,6.32422 -1.72657,11.16797 -5.17188,14.53125c-3.4375,3.35547 -8.3125,5.03125 -14.625,5.03125zm0,0" id="svg_9"/>
     </g>
    </g>
   </g>
   <g fill="#ffffff" id="svg_10">
    <g id="svg_11">
     <g id="svg_12">
      <path d="m225.72084,87.74998l-12.71875,0c-6.32422,0 -11.21094,-1.67578 -14.65625,-5.03125c-3.4375,-3.36328 -5.15625,-8.20703 -5.15625,-14.53125l0,-38.03125c0,-6.32031 1.71875,-11.16016 5.15625,-14.51563c3.44531,-3.36328 8.33203,-5.04687 14.65625,-5.04687l12.71875,0c6.23828,0 11.07813,1.70312 14.51563,5.10937c3.4375,3.39844 5.15625,8.21485 5.15625,14.45313l0,3.59375c0,1.76172 -0.83985,2.64062 -2.51563,2.64062l-10.20312,0c-1.67969,0 -2.51563,-0.8789 -2.51563,-2.64062l0,-2.875c0,-2.5625 -0.52344,-4.37891 -1.5625,-5.45313c-1.04297,-1.08203 -2.84375,-1.625 -5.40625,-1.625l-7.79687,0c-2.48047,0 -4.26172,0.54297 -5.34375,1.625c-1.07422,1.07422 -1.60938,2.89063 -1.60938,5.45313l0,36.59375c0,2.5625 0.53516,4.38672 1.60938,5.46875c1.08203,1.07422 2.86328,1.60937 5.34375,1.60937l7.79687,0c2.5625,0 4.36328,-0.53515 5.40625,-1.60937c1.03906,-1.08203 1.5625,-2.90625 1.5625,-5.46875l0,-7.5625c0,-0.875 -0.44531,-1.3125 -1.32812,-1.3125l-7.1875,0c-1.6875,0 -2.53125,-0.84375 -2.53125,-2.53125l0,-8.15625c0,-1.67578 0.84375,-2.51563 2.53125,-2.51563l21,0c1.83203,0 2.75,0.92188 2.75,2.76563l0,20.03125c0,6.24219 -1.71875,11.0625 -5.15625,14.46875c-3.4375,3.39844 -8.27735,5.09375 -14.51563,5.09375zm0,0" id="svg_13"/>
     </g>
    </g>
   </g>
   <g fill="#ffffff" id="svg_14">
    <g id="svg_15">
     <g id="svg_16">
      <path d="m290.51276,74.54685l8.51562,0c2.5625,0 4.38281,-0.53515 5.46875,-1.60937c1.08203,-1.08203 1.625,-2.90625 1.625,-5.46875l0,-36.59375c0,-2.5625 -0.54297,-4.37891 -1.625,-5.45313c-1.08594,-1.08203 -2.90625,-1.625 -5.46875,-1.625l-8.51562,0c-2.5625,0 -4.36719,0.54297 -5.40625,1.625c-1.03125,1.07422 -1.54688,2.89063 -1.54688,5.45313l0,36.59375c0,2.5625 0.51563,4.38672 1.54688,5.46875c1.03906,1.07422 2.84375,1.60937 5.40625,1.60937zm11.04687,13.20313l-13.4375,0c-6.32422,0 -11.21094,-1.67578 -14.65625,-5.03125c-3.4375,-3.36328 -5.15625,-8.20703 -5.15625,-14.53125l0,-38.03125c0,-6.32031 1.71875,-11.16016 5.15625,-14.51563c3.44531,-3.36328 8.33203,-5.04687 14.65625,-5.04687l13.4375,0c6.3125,0 11.1875,1.68359 14.625,5.04687c3.44531,3.35547 5.17188,8.19532 5.17188,14.51563l0,38.03125c0,6.32422 -1.72657,11.16797 -5.17188,14.53125c-3.4375,3.35547 -8.3125,5.03125 -14.625,5.03125zm0,0" id="svg_17"/>
     </g>
    </g>
   </g>
  </g>
 </g>
</svg>